<svg width="35" height="34" viewBox="0 0 35 34" fill="none" xmlns="http://www.w3.org/2000/svg">
<path d="M17.7812 0.5C26.8939 0.5 34.2812 7.8873 34.2812 17C34.2812 26.1127 26.8939 33.5 17.7812 33.5C8.66855 33.5 1.28125 26.1127 1.28125 17C1.28125 7.8873 8.66855 0.5 17.7812 0.5Z" stroke="white" stroke-opacity="0.5"/>
<g clip-path="url(#clip0_203_1637)">
<path d="M11.1133 13L15.722 15.6113C17.421 16.574 18.1389 16.574 19.8379 15.6113L24.4466 13" stroke="white" stroke-width="1.2" stroke-linejoin="round"/>
<path d="M11.1238 17.9834C11.1674 20.0271 11.1892 21.0489 11.9433 21.8059C12.6973 22.5629 13.7468 22.5892 15.8458 22.6419C17.1395 22.6745 18.4204 22.6745 19.7141 22.6419C21.8131 22.5892 22.8625 22.5629 23.6167 21.8059C24.3707 21.0489 24.3925 20.0271 24.4361 17.9834C24.4501 17.3263 24.4501 16.6731 24.4361 16.0159C24.3925 13.9722 24.3707 12.9504 23.6167 12.1934C22.8625 11.4365 21.8131 11.4101 19.7141 11.3574C18.4204 11.3249 17.1395 11.3249 15.8458 11.3574C13.7468 11.4101 12.6973 11.4365 11.9432 12.1934C11.1892 12.9504 11.1674 13.9722 11.1238 16.0159C11.1098 16.6731 11.1098 17.3263 11.1238 17.9834Z" stroke="white" stroke-width="1.2" stroke-linejoin="round"/>
</g>
<defs>
<clipPath id="clip0_203_1637">
<rect width="16" height="16" fill="white" transform="translate(9.78125 9)"/>
</clipPath>
</defs>
</svg>
