<svg width="35" height="34" viewBox="0 0 35 34" fill="none" xmlns="http://www.w3.org/2000/svg">
<path d="M17.9395 0.5C27.0522 0.5 34.4395 7.8873 34.4395 17C34.4395 26.1127 27.0522 33.5 17.9395 33.5C8.82675 33.5 1.43945 26.1127 1.43945 17C1.43945 7.8873 8.82675 0.5 17.9395 0.5Z" stroke="white" stroke-opacity="0.5"/>
<g clip-path="url(#clip0_281_18279)">
<path d="M17.9395 9C22.3574 9 25.9395 12.5821 25.9395 17C25.9395 20.9938 23.0145 24.3036 19.1895 24.9033V19.3135H21.0537L21.4082 17H19.1895V15.499C19.1895 14.9458 19.4268 14.4042 20.1523 14.2773C20.2539 14.2596 20.365 14.2494 20.4863 14.249H21.5029V12.2803C21.5029 12.2803 20.5871 12.124 19.7119 12.124H19.7109C19.3416 12.1241 18.9985 12.1709 18.6855 12.2598C18.4361 12.3306 18.2055 12.4275 17.9971 12.5527C17.9243 12.5965 17.8545 12.6441 17.7871 12.6943C17.691 12.766 17.6003 12.844 17.5156 12.9287C17.4357 13.0087 17.3621 13.0951 17.293 13.1865C17.1379 13.3916 17.0101 13.6246 16.9131 13.8857C16.7679 14.2761 16.6895 14.7276 16.6895 15.2373V17H14.6582V19.3135H16.6895V24.9033C12.8644 24.3025 9.93945 20.9927 9.93945 17C9.93945 12.5821 13.5215 9 17.9395 9Z" fill="white"/>
</g>
<defs>
<clipPath id="clip0_281_18279">
<rect width="16" height="16" fill="white" transform="translate(9.93945 9)"/>
</clipPath>
</defs>
</svg>
