<svg width="35" height="34" viewBox="0 0 35 34" fill="none" xmlns="http://www.w3.org/2000/svg">
<path d="M17.7812 0.5C26.8939 0.5 34.2812 7.8873 34.2812 17C34.2812 26.1127 26.8939 33.5 17.7812 33.5C8.66855 33.5 1.28125 26.1127 1.28125 17C1.28125 7.8873 8.66855 0.5 17.7812 0.5Z" stroke="white" stroke-opacity="0.5"/>
<g clip-path="url(#clip0_203_1636)">
<path d="M20.9176 10H14.6446C12.5144 10 10.7812 11.7332 10.7812 13.8635V20.1364C10.7812 22.2668 12.5144 23.9999 14.6446 23.9999H20.9176C23.048 23.9999 24.7812 22.2667 24.7812 20.1364V13.8635C24.7812 11.7332 23.048 10 20.9176 10ZM23.5391 20.1364C23.5391 21.5819 22.3631 22.7578 20.9177 22.7578H14.6446C13.1993 22.7579 12.0234 21.5819 12.0234 20.1364V13.8635C12.0234 12.4181 13.1993 11.2421 14.6446 11.2421H20.9176C22.3631 11.2421 23.539 12.4181 23.539 13.8635V20.1364H23.5391Z" fill="white"/>
<path d="M17.7813 13.3926C15.7921 13.3926 14.1738 15.0108 14.1738 17C14.1738 18.9891 15.7921 20.6073 17.7813 20.6073C19.7704 20.6073 21.3887 18.9891 21.3887 17C21.3887 15.0108 19.7704 13.3926 17.7813 13.3926ZM17.7813 19.365C16.4771 19.365 15.416 18.3041 15.416 16.9999C15.416 15.6957 16.477 14.6346 17.7813 14.6346C19.0855 14.6346 20.1465 15.6957 20.1465 16.9999C20.1465 18.3041 19.0854 19.365 17.7813 19.365Z" fill="white"/>
<path d="M21.5398 12.3398C21.3005 12.3398 21.0654 12.4367 20.8964 12.6065C20.7265 12.7754 20.6289 13.0106 20.6289 13.2507C20.6289 13.4901 20.7266 13.7252 20.8964 13.895C21.0653 14.0639 21.3005 14.1616 21.5398 14.1616C21.78 14.1616 22.0143 14.0639 22.1841 13.895C22.3538 13.7252 22.4507 13.4901 22.4507 13.2507C22.4507 13.0106 22.3538 12.7754 22.1841 12.6065C22.0151 12.4367 21.78 12.3398 21.5398 12.3398Z" fill="white"/>
</g>
<defs>
<clipPath id="clip0_203_1636">
<rect width="14" height="14" fill="white" transform="translate(10.7812 10)"/>
</clipPath>
</defs>
</svg>
