<svg width="35" height="34" viewBox="0 0 35 34" fill="none" xmlns="http://www.w3.org/2000/svg">
<path d="M17.9395 0.5C27.0522 0.5 34.4395 7.8873 34.4395 17C34.4395 26.1127 27.0522 33.5 17.9395 33.5C8.82675 33.5 1.43945 26.1127 1.43945 17C1.43945 7.8873 8.82675 0.5 17.9395 0.5Z" stroke="white" stroke-opacity="0.5"/>
<path d="M22.8197 12.7081C22.7185 12.6558 22.6199 12.5984 22.5244 12.5363C22.2467 12.3526 21.992 12.1363 21.766 11.8919C21.2003 11.2447 20.9891 10.5881 20.9113 10.1284H20.9144C20.8494 9.74688 20.8763 9.5 20.8803 9.5H18.3041V19.4619C18.3041 19.5956 18.3041 19.7278 18.2985 19.8584C18.2985 19.8747 18.2969 19.8897 18.296 19.9072C18.296 19.9144 18.296 19.9219 18.2944 19.9294C18.2944 19.9312 18.2944 19.9331 18.2944 19.935C18.2673 20.2924 18.1527 20.6377 17.9608 20.9405C17.7688 21.2432 17.5055 21.4942 17.1938 21.6713C16.869 21.856 16.5016 21.953 16.1278 21.9525C14.9275 21.9525 13.9547 20.9738 13.9547 19.765C13.9547 18.5563 14.9275 17.5775 16.1278 17.5775C16.3551 17.5773 16.5809 17.613 16.7969 17.6834L16.8 15.0603C16.1442 14.9756 15.4779 15.0277 14.8433 15.2134C14.2086 15.3991 13.6193 15.7142 13.1125 16.1391C12.6685 16.5249 12.2952 16.9852 12.0094 17.4994C11.9007 17.6869 11.4903 18.4403 11.4407 19.6631C11.4094 20.3572 11.6178 21.0763 11.7172 21.3734V21.3797C11.7797 21.5547 12.0219 22.1519 12.4166 22.6553C12.7349 23.0591 13.1109 23.4139 13.5325 23.7081V23.7019L13.5388 23.7081C14.786 24.5556 16.1688 24.5 16.1688 24.5C16.4082 24.4903 17.21 24.5 18.1207 24.0684C19.1307 23.59 19.7057 22.8772 19.7057 22.8772C20.073 22.4513 20.3651 21.9659 20.5694 21.4419C20.8025 20.8291 20.8803 20.0941 20.8803 19.8003V14.5153C20.9116 14.5341 21.3278 14.8094 21.3278 14.8094C21.3278 14.8094 21.9275 15.1938 22.8632 15.4441C23.5344 15.6222 24.4388 15.6597 24.4388 15.6597V13.1022C24.1219 13.1366 23.4785 13.0366 22.8197 12.7081Z" fill="white"/>
</svg>
