<svg width="35" height="34" viewBox="0 0 35 34" fill="none" xmlns="http://www.w3.org/2000/svg">
<rect x="1.28125" y="0.5" width="33" height="33" rx="16.5" stroke="white" stroke-opacity="0.5"/>
<path d="M28.22 14.0238C26.5845 13.0016 24.3 14.2105 23.4467 14.2105C22.5934 14.2105 22.3178 13.7393 21.0734 13.6593C18.5489 13.5082 17.7756 14.1038 17.2245 14.1038C16.6734 14.1038 16.8867 13.8016 16.4422 13.8638C15.9534 13.9438 15.8734 14.0416 15.74 14.2282C15.5711 14.4593 13.7845 19.3038 13.6689 19.5705C13.26 20.5305 15.7045 20.6549 16.2556 19.8905C17.7134 17.8816 17.3845 15.7127 19.2156 15.3571C19.6511 15.2771 20.0334 15.2593 20.3267 15.686V15.7127C20.6022 16.2016 20.14 17.1705 19.8289 17.926C19.6778 18.2905 19.2245 19.4905 19.26 19.8993C19.3311 20.6727 21.7045 20.4149 22.0334 19.8193C22.7356 18.5127 22.8778 16.2727 23.6511 15.6682C24.5934 14.9393 25.4556 15.4993 25.5267 15.8282C25.6778 16.4949 25.0289 17.7571 24.6823 18.4949C24.1934 19.5349 24.4156 20.3616 25.6689 20.3705C26.0867 20.3705 26.6556 20.2105 26.9045 19.8549C27.1089 19.5527 27.4378 18.6993 27.9089 17.4193C28.4245 16.0327 28.9845 14.4949 28.22 14.0238Z" fill="white"/>
<path d="M11.455 18.7174C11.1795 18.6018 10.9128 18.4685 10.9395 18.0952C10.9395 17.9707 11.135 17.4196 11.3395 16.8596C11.5439 16.2996 11.7661 15.7396 11.8461 15.6063C12.0772 15.2241 12.6106 15.0463 13.0817 14.8596C13.5528 14.673 13.9795 14.4952 13.9795 14.113C13.9795 13.7307 13.6772 13.6952 13.3928 13.5796C13.1084 13.4641 12.8328 13.3485 12.895 13.0552C13.0017 12.5218 13.055 12.1663 12.9217 11.9441C12.7884 11.7218 12.4772 11.6418 11.8639 11.6596C10.8861 11.6952 10.5395 11.953 10.3261 12.2818C10.1128 12.6196 10.0328 13.0196 9.57947 13.3485C9.30391 13.5441 8.9928 13.633 8.73502 13.7574C8.47725 13.8818 8.1928 14.0774 8.1928 14.353C8.1928 14.6285 8.37947 14.753 8.55725 14.8596C8.74391 14.9663 8.93058 15.0552 8.94836 15.2596C8.94836 15.8641 8.66391 16.5663 8.36169 17.2596C8.05947 17.953 7.74836 18.6285 7.73947 19.1885C7.68613 20.5396 9.44613 20.353 9.86391 20.3618C10.4595 20.353 11.9795 20.4507 12.0061 19.2685C12.0061 18.9485 11.7306 18.833 11.455 18.7174Z" fill="white"/> 

</svg>
